<svg width="24" height="24" viewBox="0 0 24 24" fill="none" xmlns="http://www.w3.org/2000/svg">
<path d="M0 5C0 2.23858 2.23858 0 5 0H19C21.7614 0 24 2.23858 24 5V19C24 21.7614 21.7614 24 19 24H5C2.23858 24 0 21.7614 0 19V5Z" fill="black"/>
<path d="M18.3828 7.88281C18.8711 7.39453 18.8711 6.60156 18.3828 6.11328C17.8945 5.625 17.1016 5.625 16.6133 6.11328L12.5 10.2305L8.38281 6.11719C7.89453 5.62891 7.10156 5.62891 6.61328 6.11719C6.125 6.60547 6.125 7.39844 6.61328 7.88672L10.7305 12L6.61719 16.1172C6.12891 16.6055 6.12891 17.3984 6.61719 17.8867C7.10547 18.375 7.89844 18.375 8.38672 17.8867L12.5 13.7695L16.6172 17.8828C17.1055 18.3711 17.8984 18.3711 18.3867 17.8828C18.875 17.3945 18.875 16.6016 18.3867 16.1133L14.2695 12L18.3828 7.88281Z" fill="white"/>
</svg>
