<svg width="240" height="240" viewBox="0 0 240 240" fill="none" xmlns="http://www.w3.org/2000/svg">
<g clip-path="url(#clip0_11_275)">
<path d="M120 240C151.826 240 182.348 227.357 204.853 204.853C227.357 182.348 240 151.826 240 120C240 88.174 227.357 57.6516 204.853 35.1472C182.348 12.6428 151.826 0 120 0C88.174 0 57.6516 12.6428 35.1472 35.1472C12.6428 57.6516 0 88.174 0 120C0 151.826 12.6428 182.348 35.1472 204.853C57.6516 227.357 88.174 240 120 240ZM60 95.6719V75H180V95.6719L120 119.438L60 95.6719ZM122.766 134.484L180 111.797V165H60V111.797L117.234 134.484L120 135.563L122.766 134.484Z" fill="black"/>
</g>
<defs>
<clipPath id="clip0_11_275">
<rect width="240" height="240" fill="white"/>
</clipPath>
</defs>
</svg>
